<svg width="1024" height="1024" viewBox="0 0 1024 1024" fill="none" xmlns="http://www.w3.org/2000/svg">
<rect width="1024" height="1024" fill="#1B1A17"/>
<path d="M630.897 725.125C582.587 725.125 545.76 709.961 520.413 679.632C495.284 649.086 482.719 604.676 482.719 546.401C482.719 485.31 496.042 438.734 522.688 406.672C549.334 374.61 586.487 358.579 634.147 358.579C654.51 358.579 672.166 361.72 687.114 368.002C702.278 374.285 714.951 382.842 725.133 393.674C735.532 404.289 743.547 416.42 749.18 430.068H751.779C750.913 418.587 750.263 406.238 749.83 393.024C749.396 379.809 749.18 367.677 749.18 356.629V213H782V718.626H755.354L751.129 653.96H749.18C743.331 666.959 735.207 678.873 724.808 689.705C714.626 700.537 701.845 709.202 686.464 715.701C671.083 721.984 652.561 725.125 630.897 725.125ZM634.472 696.529C676.065 696.529 705.636 683.639 723.184 657.86C740.731 631.864 749.505 594.819 749.505 546.726V541.527C749.505 491.701 740.731 453.573 723.184 427.144C705.636 400.498 677.04 387.175 637.396 387.175C598.185 387.175 568.181 400.823 547.384 428.119C526.804 455.415 516.514 495.059 516.514 547.051C516.514 596.011 526.154 633.164 545.435 658.51C564.932 683.856 594.611 696.529 634.472 696.529Z" fill="#D2683F"/>
<path d="M386.369 727.278C345.108 727.278 314.716 716.408 295.195 694.668C275.673 672.484 265.913 637.213 265.913 588.853V451.094H216L217.997 367.906H253.934C268.131 367.462 278.779 365.244 285.878 361.251C293.42 357.258 298.079 349.716 299.853 338.624L308.505 289.377H369.066V367.241H453.584V454.421H369.066V584.195C369.066 599.279 372.615 610.371 379.714 617.47C387.256 624.568 398.57 628.118 413.654 628.118C422.084 628.118 430.07 627.23 437.612 625.456C445.155 623.681 451.366 621.241 456.246 618.135V717.295C442.049 721.732 428.961 724.394 416.982 725.281C405.446 726.612 395.242 727.278 386.369 727.278Z" fill="#F5F3EE"/>
</svg>
